<?xml version="1.0" encoding="utf-8"?>
<svg xmlns="http://www.w3.org/2000/svg" viewBox="0 0 1200 800" width="581.152px" height="221.059px">
  <defs>
    <radialGradient gradientUnits="userSpaceOnUse" cx="598.895" cy="395.89" r="600" id="gradient-0" gradientTransform="matrix(1, 0, 0, 1, 1.105, 4.11)">
      <stop offset="0" style="stop-color: rgb(255, 255, 255);"/>
      <stop offset="1" style="stop-color: rgb(189, 189, 189);"/>
    </radialGradient>
  </defs>
  <rect width="1200" height="800" style="stroke-width: 0px; fill: url(&quot;#gradient-0&quot;);"/>
  <g transform="matrix(1, 0, 0, 1, 321.093872, 320.029053)">
    <path d="M 162.52 102.842 C 169.32 102.842 174.803 104.925 178.97 109.092 C 183.137 113.259 185.22 119.075 185.22 126.542 L 185.22 159.042 L 171.22 159.042 L 171.22 128.442 C 171.22 124.109 170.12 120.792 167.92 118.492 C 165.72 116.192 162.72 115.042 158.92 115.042 C 155.12 115.042 152.103 116.192 149.87 118.492 C 147.637 120.792 146.52 124.109 146.52 128.442 L 146.52 159.042 L 132.52 159.042 L 132.52 128.442 C 132.52 124.109 131.42 120.792 129.22 118.492 C 127.02 116.192 124.02 115.042 120.22 115.042 C 116.353 115.042 113.303 116.192 111.07 118.492 C 108.837 120.792 107.72 124.109 107.72 128.442 L 107.72 159.042 L 93.72 159.042 L 93.72 103.642 L 107.72 103.642 L 107.72 110.342 C 109.52 108.009 111.837 106.175 114.67 104.842 C 117.503 103.509 120.62 102.842 124.02 102.842 C 128.353 102.842 132.22 103.759 135.62 105.592 C 139.02 107.425 141.653 110.042 143.52 113.442 C 145.32 110.242 147.937 107.675 151.37 105.742 C 154.803 103.809 158.52 102.842 162.52 102.842 Z M 250.813 103.642 L 250.813 159.042 L 236.713 159.042 L 236.713 152.042 C 234.913 154.442 232.563 156.325 229.663 157.692 C 226.763 159.059 223.613 159.742 220.213 159.742 C 215.88 159.742 212.046 158.825 208.713 156.992 C 205.38 155.159 202.763 152.459 200.863 148.892 C 198.963 145.325 198.013 141.075 198.013 136.142 L 198.013 103.642 L 212.013 103.642 L 212.013 134.142 C 212.013 138.542 213.113 141.925 215.313 144.292 C 217.513 146.659 220.513 147.842 224.313 147.842 C 228.18 147.842 231.213 146.659 233.413 144.292 C 235.613 141.925 236.713 138.542 236.713 134.142 L 236.713 103.642 L 250.813 103.642 Z M 295.314 102.842 C 301.914 102.842 307.247 104.925 311.314 109.092 C 315.381 113.259 317.414 119.075 317.414 126.542 L 317.414 159.042 L 303.414 159.042 L 303.414 128.442 C 303.414 124.042 302.314 120.659 300.114 118.292 C 297.914 115.925 294.914 114.742 291.114 114.742 C 287.247 114.742 284.197 115.925 281.964 118.292 C 279.731 120.659 278.614 124.042 278.614 128.442 L 278.614 159.042 L 264.614 159.042 L 264.614 103.642 L 278.614 103.642 L 278.614 110.542 C 280.481 108.142 282.864 106.259 285.764 104.892 C 288.664 103.525 291.847 102.842 295.314 102.842 Z M 327.114 131.142 C 327.114 125.542 328.231 120.575 330.464 116.242 C 332.697 111.909 335.747 108.575 339.614 106.242 C 343.481 103.909 347.781 102.742 352.514 102.742 C 356.114 102.742 359.547 103.525 362.814 105.092 C 366.081 106.659 368.681 108.742 370.614 111.342 L 370.614 85.042 L 384.814 85.042 L 384.814 159.042 L 370.614 159.042 L 370.614 150.842 C 368.881 153.575 366.447 155.775 363.314 157.442 C 360.181 159.109 356.547 159.942 352.414 159.942 C 347.747 159.942 343.481 158.742 339.614 156.342 C 335.747 153.942 332.697 150.559 330.464 146.192 C 328.231 141.825 327.114 136.809 327.114 131.142 Z M 370.714 131.342 C 370.714 127.942 370.047 125.025 368.714 122.592 C 367.381 120.159 365.581 118.292 363.314 116.992 C 361.047 115.692 358.614 115.042 356.014 115.042 C 353.414 115.042 351.014 115.675 348.814 116.942 C 346.614 118.209 344.831 120.059 343.464 122.492 C 342.097 124.925 341.414 127.809 341.414 131.142 C 341.414 134.475 342.097 137.392 343.464 139.892 C 344.831 142.392 346.631 144.309 348.864 145.642 C 351.097 146.975 353.481 147.642 356.014 147.642 C 358.614 147.642 361.047 146.992 363.314 145.692 C 365.581 144.392 367.381 142.525 368.714 140.092 C 370.047 137.659 370.714 134.742 370.714 131.342 Z M 394.913 131.142 C 394.913 125.542 396.03 120.575 398.263 116.242 C 400.496 111.909 403.53 108.575 407.363 106.242 C 411.196 103.909 415.48 102.742 420.213 102.742 C 424.346 102.742 427.963 103.575 431.063 105.242 C 434.163 106.909 436.646 109.009 438.513 111.542 L 438.513 103.642 L 452.613 103.642 L 452.613 159.042 L 438.513 159.042 L 438.513 150.942 C 436.713 153.542 434.23 155.692 431.063 157.392 C 427.896 159.092 424.246 159.942 420.113 159.942 C 415.446 159.942 411.196 158.742 407.363 156.342 C 403.53 153.942 400.496 150.559 398.263 146.192 C 396.03 141.825 394.913 136.809 394.913 131.142 Z M 438.513 131.342 C 438.513 127.942 437.846 125.025 436.513 122.592 C 435.18 120.159 433.38 118.292 431.113 116.992 C 428.846 115.692 426.413 115.042 423.813 115.042 C 421.213 115.042 418.813 115.675 416.613 116.942 C 414.413 118.209 412.63 120.059 411.263 122.492 C 409.896 124.925 409.213 127.809 409.213 131.142 C 409.213 134.475 409.896 137.392 411.263 139.892 C 412.63 142.392 414.43 144.309 416.663 145.642 C 418.896 146.975 421.28 147.642 423.813 147.642 C 426.413 147.642 428.846 146.992 431.113 145.692 C 433.38 144.392 435.18 142.525 436.513 140.092 C 437.846 137.659 438.513 134.742 438.513 131.342 Z M 535.112 102.842 C 541.912 102.842 547.395 104.925 551.562 109.092 C 555.729 113.259 557.812 119.075 557.812 126.542 L 557.812 159.042 L 543.812 159.042 L 543.812 128.442 C 543.812 124.109 542.712 120.792 540.512 118.492 C 538.312 116.192 535.312 115.042 531.512 115.042 C 527.712 115.042 524.695 116.192 522.462 118.492 C 520.229 120.792 519.112 124.109 519.112 128.442 L 519.112 159.042 L 505.112 159.042 L 505.112 128.442 C 505.112 124.109 504.012 120.792 501.812 118.492 C 499.612 116.192 496.612 115.042 492.812 115.042 C 488.945 115.042 485.895 116.192 483.662 118.492 C 481.429 120.792 480.312 124.109 480.312 128.442 L 480.312 159.042 L 466.312 159.042 L 466.312 103.642 L 480.312 103.642 L 480.312 110.342 C 482.112 108.009 484.429 106.175 487.262 104.842 C 490.095 103.509 493.212 102.842 496.612 102.842 C 500.945 102.842 504.812 103.759 508.212 105.592 C 511.612 107.425 514.245 110.042 516.112 113.442 C 517.912 110.242 520.529 107.675 523.962 105.742 C 527.395 103.809 531.112 102.842 535.112 102.842 Z" style="fill: rgb(64, 64, 64); text-wrap-mode: nowrap;"/>
    <path d="M 67.63 0.025 L 122.25 0.022 C 124.97 -0.159 126.68 0.777 128.48 2.606 C 130.32 4.428 131.25 6.143 131.08 8.861 L 131.07 79.532 C 131.24 82.262 130.32 83.965 128.49 85.782 C 126.66 87.604 124.97 88.543 122.25 88.361 L 67.64 88.359 C 64.91 88.546 63.2 87.596 61.39 85.782 C 59.56 83.966 58.62 82.258 58.79 79.54 L 58.79 8.866 C 58.62 6.143 59.56 4.43 61.39 2.613 C 63.21 0.781 64.9 -0.157 67.63 0.025 Z M 25.13 26.045 L 50.77 11.24 L 50.76 79.54 C 50.95 83.9 52.87 88.637 55.7 91.463 C 58.54 94.297 63.26 96.233 67.64 96.4 L 79.94 96.408 L 69.29 102.544 C 67.01 104.071 65.05 104.121 62.58 103.451 C 60.09 102.779 58.43 101.784 57.21 99.337 L 21.89 38.111 C 20.37 35.84 20.34 33.891 21 31.406 C 21.66 28.928 22.67 27.267 25.13 26.045 Z M 1.29 69.844 L 16.1 44.197 L 50.25 103.344 C 52.61 107.02 56.64 110.17 60.5 111.198 C 64.37 112.235 69.44 111.551 73.31 109.511 L 83.96 103.366 L 77.81 114.029 C 76.59 116.478 74.92 117.487 72.44 118.142 C 69.95 118.807 68.02 118.775 65.73 117.257 L 4.53 81.921 C 2.07 80.715 1.09 79.038 0.42 76.546 C -0.26 74.076 -0.21 72.116 1.29 69.844 Z" class="card" style="fill: rgb(0, 160, 169); stroke-width: 8.397; stroke-linejoin: round; transform-origin: 74.08px 56.236px;"/>
  </g>
</svg>