<?xml version="1.0" encoding="utf-8"?>
<svg width="120" height="120" viewBox="0 0 140 140" xmlns="http://www.w3.org/2000/svg">
  <style>
        :root {
            --main-bg: #f4f4f9;
            --card-color: #00A0A9;
            --border-width: 5px;
        }
        .card {
            fill: var(--card-color);
            stroke: var(--main-bg);
            stroke-width: var(--border-width);
            stroke-linejoin: round;
        }
    </style>
  <defs>
    <rect id="card-shape" x="-25" y="-60" width="50" height="60" rx="8"/>
  </defs>
  <g transform="translate(70, 90)">
    <path d="M -58.846 -9.854 C -58.431 -8.306 -57.808 -7.269 -56.283 -6.514 L -18.178 15.486 C -16.762 16.429 -15.552 16.45 -14.005 16.035 C -12.457 15.62 -11.42 14.997 -10.665 13.472 L -6.83 6.83 L -13.472 10.665 C -15.883 11.93 -19.032 12.359 -21.44 11.714 C -23.848 11.069 -26.361 9.123 -27.816 6.822 L -49.074 -30 L -58.296 -14.028 C -59.24 -12.612 -59.261 -11.402 -58.846 -9.854 Z" class="card" style="fill: rgb(0, 160, 169); stroke-width: 5px;"/>
    <path d="M -46.035 -37.957 C -46.45 -36.409 -46.429 -35.199 -45.486 -33.783 L -23.486 4.322 C -22.731 5.847 -21.694 6.47 -20.146 6.884 C -18.598 7.299 -17.388 7.278 -15.972 6.335 L -9.33 2.5 L -17 2.5 C -19.72 2.391 -22.662 1.187 -24.425 -0.575 C -26.188 -2.338 -27.391 -5.28 -27.5 -8 L -27.5 -50.518 L -43.472 -41.296 C -44.997 -40.542 -45.62 -39.505 -46.035 -37.957 Z" class="card" style="fill: rgb(0, 160, 169); stroke-width: 5px;"/>
    <path d="M -20.889 -55.889 C -22.022 -54.756 -22.609 -53.698 -22.5 -52 L -22.5 -8 C -22.609 -6.302 -22.022 -5.244 -20.889 -4.111 C -19.756 -2.978 -18.698 -2.391 -17 -2.5 L 17 -2.5 C 18.698 -2.391 19.756 -2.978 20.889 -4.111 C 22.022 -5.244 22.609 -6.302 22.5 -8 L 22.5 -52 C 22.609 -53.698 22.022 -54.756 20.889 -55.889 C 19.756 -57.022 18.698 -57.609 17 -57.5 L -17 -57.5 C -18.698 -57.609 -19.756 -57.022 -20.889 -55.889 Z" class="card" style="fill: rgb(0, 160, 169); stroke-width: 5px;"/>
  </g>
</svg>