<?xml version="1.0" encoding="utf-8"?>
<svg xmlns="http://www.w3.org/2000/svg" viewBox="0 0 400 400" xmlns:bx="https://boxy-svg.com">
  <defs>
    <bx:export>
      <bx:file format="png" path="icone.png"/>
    </bx:export>
  </defs>
  <g>
    <rect width="400" height="400" style="fill: rgb(8, 49, 74);" rx="100" ry="100"/>
    <rect x="20" y="20" width="360" height="360" style="fill: rgb(0, 160, 169);" rx="90" ry="90"/>
    <g>
      <path d="M 55.932 241.224 L 95.376 172.905 L 149.888 267.324 C 155.11 275.56 164.155 282.577 172.778 284.887 C 181.401 287.197 192.742 285.643 201.382 281.121 L 216.248 272.538 L 189.728 318.472 C 187.101 323.833 183.525 325.945 178.092 327.402 C 172.66 328.857 168.508 328.815 163.55 325.487 L 62.946 267.404 C 57.585 264.775 55.473 261.2 54.018 255.767 C 52.561 250.334 52.603 246.182 55.932 241.224 Z" style="fill-rule: nonzero; stroke-width: 18.533; stroke-linejoin: round; stroke-linecap: round; filter: none; fill: rgb(8, 49, 74); transform-origin: 129.304px 254.971px;"/>
      <path d="M 114.869 131.275 L 185.503 90.494 C 190.46 87.165 194.612 87.124 200.045 88.58 C 201.451 88.956 202.732 89.377 203.905 89.886 C 200.595 95.696 198.495 102.74 198.22 109.386 L 198.221 225.553 C 198.624 235.296 202.949 245.895 209.262 252.209 C 209.886 252.833 210.552 253.438 211.255 254.022 L 192.116 265.072 C 187.16 268.401 183.007 268.442 177.574 266.986 C 172.141 265.53 168.567 263.419 165.938 258.057 L 107.854 157.454 C 104.524 152.496 104.484 148.344 105.94 142.912 C 107.395 137.479 109.508 133.904 114.869 131.275 Z" style="fill-rule: nonzero; stroke-width: 18.533; stroke-linejoin: round; stroke-linecap: round; filter: none; fill: rgb(8, 49, 74); transform-origin: 187.522px 178.526px;"/>
      <path d="M 331.029 95.835 C 335.006 99.812 337.047 103.428 336.642 109.386 L 336.642 225.553 C 337.046 231.511 335.006 235.127 331.03 239.104 C 327.052 243.081 323.436 245.122 317.478 244.717 L 235.916 244.717 C 229.96 245.12 226.343 243.081 222.365 239.104 C 218.388 235.127 216.348 231.51 216.753 225.553 L 216.753 109.385 C 216.348 103.429 218.388 99.812 222.366 95.835 C 226.343 91.857 229.959 89.817 235.917 90.222 L 317.478 90.222 C 323.436 89.817 327.052 91.857 331.029 95.835 Z" style="fill-rule: nonzero; stroke-width: 18.533; stroke-linejoin: round; stroke-linecap: round; filter: none; fill: rgb(8, 49, 74); transform-origin: 276.697px 167.469px;"/>
    </g>
  </g>
</svg>