<?xml version="1.0" encoding="utf-8"?>
<svg xmlns="http://www.w3.org/2000/svg" viewBox="127.0404 388.5472 244.0523 216.0015" width="244.052px" height="216.001px" preserveAspectRatio="none"><g transform="matrix(0.5156489, -0.29771006, 0.29771006, 0.5156489, 6.41920409, 282.73496103)" style="transform-origin: 244.285px 216.65px;" id="group-3"><path d="M 81.325 172.932 L 155.054 130.364 L 155.054 248.022 C 155.49 258.538 160.157 269.976 166.969 276.788 C 173.782 283.6 185.22 288.267 195.735 288.703 L 214.26 288.703 L 164.689 317.323 C 159.34 320.916 154.859 320.96 148.996 319.389 C 143.133 317.818 139.275 315.539 136.438 309.753 L 73.755 201.183 C 70.162 195.834 70.118 191.353 71.689 185.49 C 73.26 179.627 75.539 175.769 81.325 172.932 Z" style="fill-rule: nonzero; stroke-width: 20; stroke-linejoin: round; stroke-linecap: round; fill: rgb(255, 255, 255);"/><path d="M 195.735 101.975 L 283.755 101.975 C 290.184 101.538 294.087 103.74 298.379 108.032 C 299.49 109.143 300.46 110.227 301.281 111.336 C 295.053 114.98 289.29 120.43 285.447 126.493 L 222.764 235.063 C 217.884 244.387 216.207 256.626 218.7 265.933 C 218.947 266.853 219.243 267.778 219.585 268.703 L 195.735 268.703 C 189.306 269.14 185.403 266.938 181.111 262.646 C 176.819 258.354 174.618 254.451 175.054 248.022 L 175.054 122.656 C 174.617 116.227 176.819 112.324 181.111 108.032 C 185.403 103.74 189.306 101.539 195.735 101.975 Z" style="fill-rule: nonzero; stroke-width: 20px; stroke-linejoin: round; stroke-linecap: round; fill: rgb(255, 255, 255);"/><path d="M 416.882 185.491 C 418.453 191.354 418.409 195.835 414.816 201.184 L 352.133 309.754 C 349.296 315.54 345.438 317.819 339.575 319.39 C 333.712 320.961 329.231 320.917 323.882 317.324 L 247.654 273.314 C 241.869 270.477 239.589 266.619 238.018 260.756 C 236.447 254.893 236.492 250.412 240.085 245.063 L 302.768 136.493 C 305.604 130.707 309.462 128.428 315.325 126.857 C 321.188 125.286 325.669 125.33 331.018 128.923 L 407.246 172.933 C 413.032 175.77 415.311 179.628 416.882 185.491 Z" style="fill-rule: nonzero; stroke-width: 20; stroke-linejoin: round; stroke-linecap: round; fill: rgb(255, 255, 255);"/></g></svg>