<?xml version="1.0" encoding="utf-8"?>
<svg xmlns="http://www.w3.org/2000/svg" width="563.4px" height="155.7px" viewBox="0 0 563.438 155.674" preserveAspectRatio="none">
  <path d="M 168.147 98.574 C 174.947 98.574 180.43 100.658 184.597 104.824 C 188.763 108.991 190.847 114.808 190.847 122.274 L 190.847 154.774 L 176.847 154.774 L 176.847 124.174 C 176.847 119.841 175.747 116.524 173.547 114.224 C 171.347 111.924 168.347 110.774 164.547 110.774 C 160.747 110.774 157.73 111.924 155.497 114.224 C 153.263 116.524 152.147 119.841 152.147 124.174 L 152.147 154.774 L 138.147 154.774 L 138.147 124.174 C 138.147 119.841 137.047 116.524 134.847 114.224 C 132.647 111.924 129.647 110.774 125.847 110.774 C 121.98 110.774 118.93 111.924 116.697 114.224 C 114.463 116.524 113.347 119.841 113.347 124.174 L 113.347 154.774 L 99.347 154.774 L 99.347 99.374 L 113.347 99.374 L 113.347 106.074 C 115.147 103.741 117.463 101.908 120.297 100.574 C 123.13 99.241 126.247 98.574 129.647 98.574 C 133.98 98.574 137.847 99.491 141.247 101.324 C 144.647 103.158 147.28 105.774 149.147 109.174 C 150.947 105.974 153.563 103.408 156.997 101.474 C 160.43 99.541 164.147 98.574 168.147 98.574 Z M 256.439 99.374 L 256.439 154.774 L 242.339 154.774 L 242.339 147.774 C 240.539 150.174 238.189 152.058 235.289 153.424 C 232.389 154.791 229.239 155.474 225.839 155.474 C 221.505 155.474 217.672 154.558 214.339 152.724 C 211.005 150.891 208.389 148.191 206.489 144.624 C 204.589 141.058 203.639 136.808 203.639 131.874 L 203.639 99.374 L 217.639 99.374 L 217.639 129.874 C 217.639 134.274 218.739 137.658 220.939 140.024 C 223.139 142.391 226.139 143.574 229.939 143.574 C 233.805 143.574 236.839 142.391 239.039 140.024 C 241.239 137.658 242.339 134.274 242.339 129.874 L 242.339 99.374 L 256.439 99.374 Z M 300.942 98.574 C 307.542 98.574 312.875 100.658 316.942 104.824 C 321.008 108.991 323.042 114.808 323.042 122.274 L 323.042 154.774 L 309.042 154.774 L 309.042 124.174 C 309.042 119.774 307.942 116.391 305.742 114.024 C 303.542 111.658 300.542 110.474 296.742 110.474 C 292.875 110.474 289.825 111.658 287.592 114.024 C 285.358 116.391 284.242 119.774 284.242 124.174 L 284.242 154.774 L 270.242 154.774 L 270.242 99.374 L 284.242 99.374 L 284.242 106.274 C 286.108 103.874 288.492 101.991 291.392 100.624 C 294.292 99.258 297.475 98.574 300.942 98.574 Z M 332.737 126.874 C 332.737 121.274 333.853 116.308 336.087 111.974 C 338.32 107.641 341.37 104.308 345.237 101.974 C 349.103 99.641 353.403 98.474 358.137 98.474 C 361.737 98.474 365.17 99.258 368.437 100.824 C 371.703 102.391 374.303 104.474 376.237 107.074 L 376.237 80.774 L 390.437 80.774 L 390.437 154.774 L 376.237 154.774 L 376.237 146.574 C 374.503 149.308 372.07 151.508 368.937 153.174 C 365.803 154.841 362.17 155.674 358.037 155.674 C 353.37 155.674 349.103 154.474 345.237 152.074 C 341.37 149.674 338.32 146.291 336.087 141.924 C 333.853 137.558 332.737 132.541 332.737 126.874 Z M 376.337 127.074 C 376.337 123.674 375.67 120.758 374.337 118.324 C 373.003 115.891 371.203 114.024 368.937 112.724 C 366.67 111.424 364.237 110.774 361.637 110.774 C 359.037 110.774 356.637 111.408 354.437 112.674 C 352.237 113.941 350.453 115.791 349.087 118.224 C 347.72 120.658 347.037 123.541 347.037 126.874 C 347.037 130.208 347.72 133.124 349.087 135.624 C 350.453 138.124 352.253 140.041 354.487 141.374 C 356.72 142.708 359.103 143.374 361.637 143.374 C 364.237 143.374 366.67 142.724 368.937 141.424 C 371.203 140.124 373.003 138.258 374.337 135.824 C 375.67 133.391 376.337 130.474 376.337 127.074 Z M 400.538 126.874 C 400.538 121.274 401.654 116.308 403.888 111.974 C 406.121 107.641 409.154 104.308 412.988 101.974 C 416.821 99.641 421.104 98.474 425.838 98.474 C 429.971 98.474 433.588 99.308 436.688 100.974 C 439.788 102.641 442.271 104.741 444.138 107.274 L 444.138 99.374 L 458.238 99.374 L 458.238 154.774 L 444.138 154.774 L 444.138 146.674 C 442.338 149.274 439.854 151.424 436.688 153.124 C 433.521 154.824 429.871 155.674 425.738 155.674 C 421.071 155.674 416.821 154.474 412.988 152.074 C 409.154 149.674 406.121 146.291 403.888 141.924 C 401.654 137.558 400.538 132.541 400.538 126.874 Z M 444.138 127.074 C 444.138 123.674 443.471 120.758 442.138 118.324 C 440.804 115.891 439.004 114.024 436.738 112.724 C 434.471 111.424 432.038 110.774 429.438 110.774 C 426.838 110.774 424.438 111.408 422.238 112.674 C 420.038 113.941 418.254 115.791 416.888 118.224 C 415.521 120.658 414.838 123.541 414.838 126.874 C 414.838 130.208 415.521 133.124 416.888 135.624 C 418.254 138.124 420.054 140.041 422.288 141.374 C 424.521 142.708 426.904 143.374 429.438 143.374 C 432.038 143.374 434.471 142.724 436.738 141.424 C 439.004 140.124 440.804 138.258 442.138 135.824 C 443.471 133.391 444.138 130.474 444.138 127.074 Z M 540.738 98.574 C 547.538 98.574 553.021 100.658 557.188 104.824 C 561.354 108.991 563.438 114.808 563.438 122.274 L 563.438 154.774 L 549.438 154.774 L 549.438 124.174 C 549.438 119.841 548.338 116.524 546.138 114.224 C 543.938 111.924 540.938 110.774 537.138 110.774 C 533.338 110.774 530.321 111.924 528.088 114.224 C 525.854 116.524 524.738 119.841 524.738 124.174 L 524.738 154.774 L 510.738 154.774 L 510.738 124.174 C 510.738 119.841 509.638 116.524 507.438 114.224 C 505.238 111.924 502.238 110.774 498.438 110.774 C 494.571 110.774 491.521 111.924 489.288 114.224 C 487.054 116.524 485.938 119.841 485.938 124.174 L 485.938 154.774 L 471.938 154.774 L 471.938 99.374 L 485.938 99.374 L 485.938 106.074 C 487.738 103.741 490.054 101.908 492.888 100.574 C 495.721 99.241 498.838 98.574 502.238 98.574 C 506.571 98.574 510.438 99.491 513.838 101.324 C 517.238 103.158 519.871 105.774 521.738 109.174 C 523.538 105.974 526.154 103.408 529.588 101.474 C 533.021 99.541 536.738 98.574 540.738 98.574 Z" style="text-wrap-mode: nowrap; fill: rgb(255, 255, 255);"/>
  <path d="M 1.506 81.743 L 22.504 45.375 L 51.522 95.636 C 54.302 100.022 59.116 103.757 63.706 104.987 C 68.297 106.216 74.334 105.389 78.934 102.981 L 86.847 98.413 L 72.73 122.864 C 71.331 125.719 69.427 126.842 66.536 127.618 C 63.644 128.393 61.433 128.37 58.794 126.598 L 5.24 95.678 C 2.386 94.28 1.262 92.376 0.487 89.484 C -0.288 86.592 -0.266 84.382 1.506 81.743 Z" style="fill-rule: nonzero; stroke-width: 9.865; stroke-linejoin: round; stroke-linecap: round; transform-origin: 40.564px 89.061px; fill: rgb(255, 255, 255);"/>
  <path d="M 32.88 23.215 L 70.48 1.506 C 73.119 -0.267 75.33 -0.289 78.222 0.487 C 78.971 0.688 79.652 0.911 80.277 1.182 C 78.514 4.275 77.397 8.024 77.251 11.563 L 77.251 73.401 C 77.465 78.588 79.767 84.23 83.128 87.591 C 83.461 87.923 83.815 88.245 84.189 88.556 L 74.001 94.438 C 71.362 96.21 69.152 96.232 66.26 95.458 C 63.368 94.683 61.465 93.558 60.066 90.704 L 29.146 37.15 C 27.374 34.511 27.352 32.301 28.127 29.41 C 28.902 26.516 30.026 24.614 32.88 23.215 Z" style="fill-rule: nonzero; stroke-width: 9.865; stroke-linejoin: round; stroke-linecap: round; transform-origin: 71.555px 48.368px; fill: rgb(255, 255, 255);"/>
  <path d="M 147.949 4.349 C 150.066 6.466 151.152 8.391 150.937 11.562 L 150.936 73.402 C 151.151 76.573 150.065 78.498 147.948 80.615 C 145.831 82.732 143.906 83.818 140.735 83.603 L 97.317 83.603 C 94.146 83.818 92.221 82.732 90.104 80.615 C 87.987 78.498 86.9 76.572 87.116 73.402 L 87.116 11.562 C 86.901 8.391 87.986 6.466 90.103 4.348 C 92.221 2.232 94.145 1.145 97.317 1.361 L 140.735 1.36 C 143.906 1.146 145.831 2.232 147.949 4.349 Z" style="fill-rule: nonzero; stroke-width: 9.865; stroke-linejoin: round; stroke-linecap: round; transform-origin: 119.026px 42.482px; fill: rgb(255, 255, 255);"/>
</svg>